<mxfile host="app.diagrams.net" agent="Mozilla/5.0 (Macintosh; Intel Mac OS X 10_15_7) AppleWebKit/537.36 (KHTML, like Gecko) Chrome/131.0.0.0 Safari/537.36" version="25.0.3">
  <diagram name="第 1 页" id="qOMe_1eHTwjriC9Qn3Nd">
    <mxGraphModel dx="1080" dy="633" grid="0" gridSize="10" guides="1" tooltips="1" connect="1" arrows="1" fold="1" page="1" pageScale="1" pageWidth="827" pageHeight="1169" math="0" shadow="0">
      <root>
        <mxCell id="0" />
        <mxCell id="1" parent="0" />
        <mxCell id="PDFPXpD2V-QB4rKE96q8-6" value="ChatInputDialog&amp;nbsp;" style="swimlane;fontStyle=1;align=center;verticalAlign=top;childLayout=stackLayout;horizontal=1;startSize=26;horizontalStack=0;resizeParent=1;resizeParentMax=0;resizeLast=0;collapsible=1;marginBottom=0;whiteSpace=wrap;html=1;" vertex="1" parent="1">
          <mxGeometry x="340" y="180" width="200" height="184" as="geometry" />
        </mxCell>
        <mxCell id="PDFPXpD2V-QB4rKE96q8-7" value="&lt;div&gt;&lt;div&gt;&lt;font style=&quot;font-size: 12px;&quot;&gt;+ panelManager: PanelManager&lt;/font&gt;&lt;/div&gt;&lt;/div&gt;&lt;div&gt;&lt;font style=&quot;font-size: 12px;&quot;&gt;+ inputViewModel:InputViewModel&lt;/font&gt;&lt;/div&gt;&lt;div&gt;&lt;font style=&quot;font-size: 12px;&quot;&gt;+ inputparams:InputParams&lt;/font&gt;&lt;/div&gt;&lt;div&gt;&lt;font style=&quot;font-size: 12px;&quot;&gt;+ inputCallback: OnInputShowCallback&lt;/font&gt;&lt;/div&gt;" style="text;strokeColor=none;fillColor=none;align=left;verticalAlign=top;spacingLeft=4;spacingRight=4;overflow=hidden;rotatable=0;points=[[0,0.5],[1,0.5]];portConstraint=eastwest;whiteSpace=wrap;html=1;" vertex="1" parent="PDFPXpD2V-QB4rKE96q8-6">
          <mxGeometry y="26" width="200" height="94" as="geometry" />
        </mxCell>
        <mxCell id="PDFPXpD2V-QB4rKE96q8-8" value="" style="line;strokeWidth=1;fillColor=none;align=left;verticalAlign=middle;spacingTop=-1;spacingLeft=3;spacingRight=3;rotatable=0;labelPosition=right;points=[];portConstraint=eastwest;strokeColor=inherit;" vertex="1" parent="PDFPXpD2V-QB4rKE96q8-6">
          <mxGeometry y="120" width="200" height="8" as="geometry" />
        </mxCell>
        <mxCell id="PDFPXpD2V-QB4rKE96q8-9" value="+ setEidtWords(words: String)&lt;div&gt;+ setOnInputShowCallback()&lt;/div&gt;" style="text;strokeColor=none;fillColor=none;align=left;verticalAlign=top;spacingLeft=4;spacingRight=4;overflow=hidden;rotatable=0;points=[[0,0.5],[1,0.5]];portConstraint=eastwest;whiteSpace=wrap;html=1;" vertex="1" parent="PDFPXpD2V-QB4rKE96q8-6">
          <mxGeometry y="128" width="200" height="56" as="geometry" />
        </mxCell>
        <mxCell id="PDFPXpD2V-QB4rKE96q8-11" value="PanelManager" style="swimlane;fontStyle=1;align=center;verticalAlign=top;childLayout=stackLayout;horizontal=1;startSize=26;horizontalStack=0;resizeParent=1;resizeParentMax=0;resizeLast=0;collapsible=1;marginBottom=0;whiteSpace=wrap;html=1;" vertex="1" parent="1">
          <mxGeometry x="80" y="180" width="180" height="130" as="geometry" />
        </mxCell>
        <mxCell id="PDFPXpD2V-QB4rKE96q8-12" value="+ field: type" style="text;strokeColor=none;fillColor=none;align=left;verticalAlign=top;spacingLeft=4;spacingRight=4;overflow=hidden;rotatable=0;points=[[0,0.5],[1,0.5]];portConstraint=eastwest;whiteSpace=wrap;html=1;" vertex="1" parent="PDFPXpD2V-QB4rKE96q8-11">
          <mxGeometry y="26" width="180" height="26" as="geometry" />
        </mxCell>
        <mxCell id="PDFPXpD2V-QB4rKE96q8-13" value="" style="line;strokeWidth=1;fillColor=none;align=left;verticalAlign=middle;spacingTop=-1;spacingLeft=3;spacingRight=3;rotatable=0;labelPosition=right;points=[];portConstraint=eastwest;strokeColor=inherit;" vertex="1" parent="PDFPXpD2V-QB4rKE96q8-11">
          <mxGeometry y="52" width="180" height="8" as="geometry" />
        </mxCell>
        <mxCell id="PDFPXpD2V-QB4rKE96q8-14" value="&lt;div&gt;+ getPanel(PanelMode: mode)&lt;/div&gt;&lt;div&gt;+ getCurPanelMode: PanelMode&lt;/div&gt;" style="text;strokeColor=none;fillColor=none;align=left;verticalAlign=top;spacingLeft=4;spacingRight=4;overflow=hidden;rotatable=0;points=[[0,0.5],[1,0.5]];portConstraint=eastwest;whiteSpace=wrap;html=1;" vertex="1" parent="PDFPXpD2V-QB4rKE96q8-11">
          <mxGeometry y="60" width="180" height="70" as="geometry" />
        </mxCell>
        <mxCell id="PDFPXpD2V-QB4rKE96q8-16" style="edgeStyle=orthogonalEdgeStyle;rounded=0;orthogonalLoop=1;jettySize=auto;html=1;entryX=-0.02;entryY=0.41;entryDx=0;entryDy=0;entryPerimeter=0;" edge="1" parent="1" source="PDFPXpD2V-QB4rKE96q8-11" target="PDFPXpD2V-QB4rKE96q8-7">
          <mxGeometry relative="1" as="geometry" />
        </mxCell>
        <mxCell id="PDFPXpD2V-QB4rKE96q8-18" value="&lt;b&gt;InputViewModel&lt;/b&gt;" style="swimlane;fontStyle=0;childLayout=stackLayout;horizontal=1;startSize=26;fillColor=none;horizontalStack=0;resizeParent=1;resizeParentMax=0;resizeLast=0;collapsible=1;marginBottom=0;whiteSpace=wrap;html=1;" vertex="1" parent="1">
          <mxGeometry x="590" y="130" width="170" height="78" as="geometry" />
        </mxCell>
        <mxCell id="PDFPXpD2V-QB4rKE96q8-19" value="+ panelIntoData: LiveData" style="text;strokeColor=none;fillColor=none;align=left;verticalAlign=top;spacingLeft=4;spacingRight=4;overflow=hidden;rotatable=0;points=[[0,0.5],[1,0.5]];portConstraint=eastwest;whiteSpace=wrap;html=1;" vertex="1" parent="PDFPXpD2V-QB4rKE96q8-18">
          <mxGeometry y="26" width="170" height="26" as="geometry" />
        </mxCell>
        <mxCell id="PDFPXpD2V-QB4rKE96q8-20" value="+ keyboardInputData" style="text;strokeColor=none;fillColor=none;align=left;verticalAlign=top;spacingLeft=4;spacingRight=4;overflow=hidden;rotatable=0;points=[[0,0.5],[1,0.5]];portConstraint=eastwest;whiteSpace=wrap;html=1;" vertex="1" parent="PDFPXpD2V-QB4rKE96q8-18">
          <mxGeometry y="52" width="170" height="26" as="geometry" />
        </mxCell>
        <mxCell id="PDFPXpD2V-QB4rKE96q8-22" style="edgeStyle=orthogonalEdgeStyle;rounded=0;orthogonalLoop=1;jettySize=auto;html=1;entryX=1;entryY=0.382;entryDx=0;entryDy=0;entryPerimeter=0;" edge="1" parent="1" source="PDFPXpD2V-QB4rKE96q8-20" target="PDFPXpD2V-QB4rKE96q8-7">
          <mxGeometry relative="1" as="geometry" />
        </mxCell>
        <mxCell id="PDFPXpD2V-QB4rKE96q8-24" value="InputParams" style="swimlane;fontStyle=1;align=center;verticalAlign=top;childLayout=stackLayout;horizontal=1;startSize=26;horizontalStack=0;resizeParent=1;resizeParentMax=0;resizeLast=0;collapsible=1;marginBottom=0;whiteSpace=wrap;html=1;" vertex="1" parent="1">
          <mxGeometry x="590" y="318" width="160" height="78" as="geometry" />
        </mxCell>
        <mxCell id="PDFPXpD2V-QB4rKE96q8-25" value="+ inputType: Int" style="text;strokeColor=none;fillColor=none;align=left;verticalAlign=top;spacingLeft=4;spacingRight=4;overflow=hidden;rotatable=0;points=[[0,0.5],[1,0.5]];portConstraint=eastwest;whiteSpace=wrap;html=1;" vertex="1" parent="PDFPXpD2V-QB4rKE96q8-24">
          <mxGeometry y="26" width="160" height="44" as="geometry" />
        </mxCell>
        <mxCell id="PDFPXpD2V-QB4rKE96q8-26" value="" style="line;strokeWidth=1;fillColor=none;align=left;verticalAlign=middle;spacingTop=-1;spacingLeft=3;spacingRight=3;rotatable=0;labelPosition=right;points=[];portConstraint=eastwest;strokeColor=inherit;" vertex="1" parent="PDFPXpD2V-QB4rKE96q8-24">
          <mxGeometry y="70" width="160" height="8" as="geometry" />
        </mxCell>
        <mxCell id="PDFPXpD2V-QB4rKE96q8-28" style="edgeStyle=orthogonalEdgeStyle;rounded=0;orthogonalLoop=1;jettySize=auto;html=1;entryX=0.995;entryY=0.617;entryDx=0;entryDy=0;entryPerimeter=0;" edge="1" parent="1" source="PDFPXpD2V-QB4rKE96q8-25" target="PDFPXpD2V-QB4rKE96q8-7">
          <mxGeometry relative="1" as="geometry" />
        </mxCell>
        <mxCell id="PDFPXpD2V-QB4rKE96q8-32" style="edgeStyle=orthogonalEdgeStyle;rounded=0;orthogonalLoop=1;jettySize=auto;html=1;entryX=0.5;entryY=1;entryDx=0;entryDy=0;" edge="1" parent="1" source="PDFPXpD2V-QB4rKE96q8-29" target="PDFPXpD2V-QB4rKE96q8-30">
          <mxGeometry relative="1" as="geometry">
            <mxPoint x="147.5" y="490" as="targetPoint" />
          </mxGeometry>
        </mxCell>
        <mxCell id="PDFPXpD2V-QB4rKE96q8-29" value="&lt;p style=&quot;margin:0px;margin-top:4px;text-align:center;&quot;&gt;&lt;i&gt;&amp;lt;&amp;lt;OnInputShowCallback&amp;gt;&amp;gt;&lt;/i&gt;&lt;br&gt;&lt;b&gt;Interface&lt;/b&gt;&lt;/p&gt;&lt;p style=&quot;margin:0px;margin-left:4px;&quot;&gt;&lt;br&gt;&lt;/p&gt;&lt;hr size=&quot;1&quot; style=&quot;border-style:solid;&quot;&gt;&lt;p style=&quot;margin:0px;margin-left:4px;&quot;&gt;+ getInputHeight(): int&lt;br&gt;+ getInputContent():CharSequence&lt;/p&gt;" style="verticalAlign=top;align=left;overflow=fill;html=1;whiteSpace=wrap;" vertex="1" parent="1">
          <mxGeometry x="50" y="475" width="195" height="110" as="geometry" />
        </mxCell>
        <mxCell id="PDFPXpD2V-QB4rKE96q8-30" value="OnInputShowCallback" style="html=1;whiteSpace=wrap;" vertex="1" parent="1">
          <mxGeometry x="82.5" y="390" width="130" height="45" as="geometry" />
        </mxCell>
        <mxCell id="PDFPXpD2V-QB4rKE96q8-34" style="edgeStyle=orthogonalEdgeStyle;rounded=0;orthogonalLoop=1;jettySize=auto;html=1;entryX=-0.021;entryY=0.862;entryDx=0;entryDy=0;entryPerimeter=0;" edge="1" parent="1" source="PDFPXpD2V-QB4rKE96q8-30" target="PDFPXpD2V-QB4rKE96q8-7">
          <mxGeometry relative="1" as="geometry">
            <Array as="points">
              <mxPoint x="147" y="330" />
              <mxPoint x="300" y="330" />
              <mxPoint x="300" y="287" />
            </Array>
          </mxGeometry>
        </mxCell>
      </root>
    </mxGraphModel>
  </diagram>
</mxfile>
